<svg xmlns="http://www.w3.org/2000/svg" xmlns:xlink="http://www.w3.org/1999/xlink" width="1080" zoomAndPan="magnify" viewBox="0 0 810 809.999993" height="1080" preserveAspectRatio="xMidYMid meet" version="1.0"><defs><clipPath id="89812de5d2"><path d="M 125 40 L 764 40 L 764 808 L 125 808 Z M 125 40 " clip-rule="nonzero"/></clipPath><clipPath id="53f8127713"><path d="M 46.539062 18.273438 L 719.839844 -17.472656 L 763.617188 807.113281 L 90.316406 842.863281 Z M 46.539062 18.273438 " clip-rule="nonzero"/></clipPath><clipPath id="ee692bcc34"><path d="M 46.539062 18.273438 L 719.839844 -17.472656 L 763.617188 807.113281 L 90.316406 842.863281 Z M 46.539062 18.273438 " clip-rule="nonzero"/></clipPath><clipPath id="a4010a84e5"><path d="M 58 12 L 697 12 L 697 780 L 58 780 Z M 58 12 " clip-rule="nonzero"/></clipPath><clipPath id="7bd773d375"><path d="M 46.539062 18.273438 L 719.839844 -17.472656 L 763.617188 807.113281 L 90.316406 842.863281 Z M 46.539062 18.273438 " clip-rule="nonzero"/></clipPath><clipPath id="0b7ad2c468"><path d="M 46.539062 18.273438 L 719.839844 -17.472656 L 763.617188 807.113281 L 90.316406 842.863281 Z M 46.539062 18.273438 " clip-rule="nonzero"/></clipPath><clipPath id="263205522c"><path d="M 248 12 L 697 12 L 697 780 L 248 780 Z M 248 12 " clip-rule="nonzero"/></clipPath><clipPath id="80ed218d84"><path d="M 46.539062 18.273438 L 719.839844 -17.472656 L 763.617188 807.113281 L 90.316406 842.863281 Z M 46.539062 18.273438 " clip-rule="nonzero"/></clipPath><clipPath id="090e2e2677"><path d="M 46.539062 18.273438 L 719.839844 -17.472656 L 763.617188 807.113281 L 90.316406 842.863281 Z M 46.539062 18.273438 " clip-rule="nonzero"/></clipPath><clipPath id="facbe36125"><path d="M 52 3 L 698 3 L 698 780 L 52 780 Z M 52 3 " clip-rule="nonzero"/></clipPath><clipPath id="6af32c7e3f"><path d="M 46.539062 18.273438 L 719.839844 -17.472656 L 763.617188 807.113281 L 90.316406 842.863281 Z M 46.539062 18.273438 " clip-rule="nonzero"/></clipPath><clipPath id="f881406a39"><path d="M 46.539062 18.273438 L 719.839844 -17.472656 L 763.617188 807.113281 L 90.316406 842.863281 Z M 46.539062 18.273438 " clip-rule="nonzero"/></clipPath></defs><rect x="-81" width="972" fill="#ffffff" y="-80.999999" height="971.999992" fill-opacity="1"/><rect x="-81" width="972" fill="#e94c89" y="-80.999999" height="971.999992" fill-opacity="1"/><g clip-path="url(#89812de5d2)"><g clip-path="url(#53f8127713)"><g clip-path="url(#ee692bcc34)"><path fill="#0a0908" d="M 763.398438 807.207031 L 151.421875 456.578125 L 354.234375 382.285156 L 125.652344 154.03125 L 387.503906 40.734375 L 645.230469 410.171875 L 476.960938 474.207031 Z M 763.398438 807.207031 " fill-opacity="1" fill-rule="nonzero"/></g></g></g><g clip-path="url(#a4010a84e5)"><g clip-path="url(#7bd773d375)"><g clip-path="url(#0b7ad2c468)"><path fill="#e2c100" d="M 696.640625 779.148438 L 84.660156 428.519531 L 287.476562 354.226562 L 58.894531 126.007812 L 320.746094 12.671875 L 578.472656 382.109375 L 410.203125 446.148438 Z M 696.640625 779.148438 " fill-opacity="1" fill-rule="nonzero"/></g></g></g><g clip-path="url(#263205522c)"><g clip-path="url(#80ed218d84)"><g clip-path="url(#090e2e2677)"><path fill="#e2c100" d="M 294.125 415.230469 L 520.242188 678.097656 L 696.640625 779.148438 L 410.203125 446.148438 L 578.472656 382.109375 L 320.746094 12.671875 L 248.1875 44.078125 L 462.398438 351.195312 Z M 294.125 415.230469 " fill-opacity="1" fill-rule="nonzero"/></g></g></g><g clip-path="url(#facbe36125)"><g clip-path="url(#6af32c7e3f)"><g clip-path="url(#f881406a39)"><path fill="#0a0908" d="M 697.273438 779.683594 C 672.460938 765.679688 647.398438 751.617188 622.230469 737.597656 L 584.355469 716.535156 L 546.226562 695.453125 L 391.875 610.507812 C 340.019531 581.90625 287.929688 552.925781 236.03125 523.542969 C 184.132812 494.195312 132.558594 464.230469 81.539062 434.019531 L 69.832031 427.066406 L 82.5 422.628906 L 133.492188 404.8125 L 184.488281 387.066406 L 235.484375 369.285156 C 252.476562 363.300781 269.4375 357.351562 286.398438 351.332031 L 285.28125 356.4375 C 266.414062 337.210938 247.519531 318.09375 228.515625 298.984375 C 209.515625 279.90625 190.480469 260.902344 171.378906 241.9375 C 152.277344 222.972656 133.144531 204.042969 113.941406 185.191406 C 94.734375 166.304688 75.503906 147.523438 56.230469 128.710938 L 52.257812 124.832031 L 57.429688 122.496094 L 187.566406 64.003906 L 220.101562 49.40625 L 252.675781 34.878906 C 274.378906 25.195312 296.121094 15.582031 317.902344 5.964844 L 323.320312 3.578125 L 326.78125 8.515625 L 456.707031 192.484375 C 478.351562 223.152344 499.925781 253.894531 521.429688 284.640625 C 542.9375 315.386719 564.375 346.207031 585.742188 377.066406 L 592.210938 386.394531 L 581.648438 390.367188 L 539.511719 406.21875 L 497.367188 422 L 455.1875 437.714844 L 413.003906 453.390625 L 416.121094 441.105469 C 440.167969 469.546875 464.152344 498.101562 487.964844 526.769531 C 499.851562 541.105469 511.742188 555.4375 523.484375 569.746094 L 541.121094 591.207031 L 558.644531 612.601562 C 581.984375 641.082031 605.0625 669.328125 628.121094 697.183594 C 651.175781 725.003906 674.25 752.539062 697.273438 779.683594 Z M 696.007812 778.613281 C 671.324219 750.277344 646.660156 722.292969 621.976562 694.628906 C 597.292969 666.96875 572.667969 639.691406 548.269531 612.691406 L 511.855469 572.320312 C 499.765625 558.882812 487.75 545.480469 475.765625 532.039062 C 451.835938 505.1875 428.082031 478.257812 404.390625 451.183594 L 397.164062 442.929688 L 407.507812 438.894531 L 449.441406 422.554688 L 491.414062 406.25 L 533.390625 390.015625 L 575.402344 373.8125 L 571.308594 387.113281 C 549.734375 356.40625 528.226562 325.625 506.757812 294.839844 C 485.25 264.058594 463.882812 233.199219 442.546875 202.335938 L 314.746094 16.867188 L 323.660156 19.378906 C 301.757812 28.683594 279.851562 37.917969 257.945312 47.113281 L 225.046875 60.910156 L 192.144531 74.640625 L 60.433594 129.515625 L 61.632812 123.304688 C 80.464844 142.566406 99.296875 161.796875 118.195312 180.949219 C 137.058594 200.105469 155.988281 219.21875 174.992188 238.296875 C 193.992188 257.375 213.023438 276.378906 232.125 295.34375 C 251.226562 314.308594 270.398438 333.199219 289.632812 352.011719 L 293.082031 355.386719 L 288.515625 357.121094 C 271.683594 363.488281 254.855469 369.890625 238.058594 376.292969 L 187.644531 395.644531 L 137.234375 415.027344 L 86.820312 434.378906 L 87.78125 423.023438 C 138.765625 451.242188 189.195312 479.707031 239.265625 508.796875 C 289.367188 537.882812 339.28125 567.332031 389.425781 597.164062 C 439.570312 626.992188 490.019531 657.199219 541.042969 687.515625 L 579.433594 710.253906 L 618.042969 733.019531 C 643.878906 748.25 669.816406 763.402344 696.007812 778.613281 Z M 696.007812 778.613281 " fill-opacity="1" fill-rule="nonzero"/></g></g></g></svg>