<svg xmlns="http://www.w3.org/2000/svg" xmlns:xlink="http://www.w3.org/1999/xlink" width="1080" zoomAndPan="magnify" viewBox="0 0 810 809.999993" height="1080" preserveAspectRatio="xMidYMid meet" version="1.0"><defs><clipPath id="7419613d7e"><path d="M 133 47 L 762 47 L 762 802 L 133 802 Z M 133 47 " clip-rule="nonzero"/></clipPath><clipPath id="d5bbf669bb"><path d="M 55.957031 25.109375 L 718.023438 -10.042969 L 761.085938 801.066406 L 99.019531 836.214844 Z M 55.957031 25.109375 " clip-rule="nonzero"/></clipPath><clipPath id="c0515cf1f5"><path d="M 55.957031 25.109375 L 718.023438 -10.042969 L 761.085938 801.066406 L 99.019531 836.214844 Z M 55.957031 25.109375 " clip-rule="nonzero"/></clipPath><clipPath id="3fe02dc57e"><path d="M 68 19 L 696 19 L 696 774 L 68 774 Z M 68 19 " clip-rule="nonzero"/></clipPath><clipPath id="05f5cf2edf"><path d="M 55.957031 25.109375 L 718.023438 -10.042969 L 761.085938 801.066406 L 99.019531 836.214844 Z M 55.957031 25.109375 " clip-rule="nonzero"/></clipPath><clipPath id="e869941fe2"><path d="M 55.957031 25.109375 L 718.023438 -10.042969 L 761.085938 801.066406 L 99.019531 836.214844 Z M 55.957031 25.109375 " clip-rule="nonzero"/></clipPath><clipPath id="bab8c47193"><path d="M 254 19 L 696 19 L 696 774 L 254 774 Z M 254 19 " clip-rule="nonzero"/></clipPath><clipPath id="cb9fa5a399"><path d="M 55.957031 25.109375 L 718.023438 -10.042969 L 761.085938 801.066406 L 99.019531 836.214844 Z M 55.957031 25.109375 " clip-rule="nonzero"/></clipPath><clipPath id="7d8ab9aab8"><path d="M 55.957031 25.109375 L 718.023438 -10.042969 L 761.085938 801.066406 L 99.019531 836.214844 Z M 55.957031 25.109375 " clip-rule="nonzero"/></clipPath><clipPath id="221a84d36d"><path d="M 61 10 L 697 10 L 697 775 L 61 775 Z M 61 10 " clip-rule="nonzero"/></clipPath><clipPath id="6e93855ce2"><path d="M 55.957031 25.109375 L 718.023438 -10.042969 L 761.085938 801.066406 L 99.019531 836.214844 Z M 55.957031 25.109375 " clip-rule="nonzero"/></clipPath><clipPath id="b4b1ed9d16"><path d="M 55.957031 25.109375 L 718.023438 -10.042969 L 761.085938 801.066406 L 99.019531 836.214844 Z M 55.957031 25.109375 " clip-rule="nonzero"/></clipPath></defs><g clip-path="url(#7419613d7e)"><g clip-path="url(#d5bbf669bb)"><g clip-path="url(#c0515cf1f5)"><path fill="#100f0d" d="M 761.226562 801.292969 L 159.140625 456.332031 L 358.675781 383.238281 L 133.789062 158.671875 L 391.410156 47.207031 L 644.972656 410.671875 L 479.421875 473.671875 Z M 761.226562 801.292969 " fill-opacity="1" fill-rule="nonzero"/></g></g></g><g clip-path="url(#3fe02dc57e)"><g clip-path="url(#05f5cf2edf)"><g clip-path="url(#e869941fe2)"><path fill="#e2c100" d="M 695.546875 773.6875 L 93.460938 428.726562 L 292.996094 355.628906 L 68.113281 131.101562 L 325.730469 19.597656 L 579.292969 383.066406 L 413.742188 446.066406 Z M 695.546875 773.6875 " fill-opacity="1" fill-rule="nonzero"/></g></g></g><g clip-path="url(#bab8c47193)"><g clip-path="url(#cb9fa5a399)"><g clip-path="url(#7d8ab9aab8)"><path fill="#e2c100" d="M 299.542969 415.648438 L 522.003906 674.269531 L 695.546875 773.6875 L 413.742188 446.066406 L 579.292969 383.066406 L 325.730469 19.597656 L 254.34375 50.496094 L 465.09375 352.648438 Z M 299.542969 415.648438 " fill-opacity="1" fill-rule="nonzero"/></g></g></g><g clip-path="url(#221a84d36d)"><g clip-path="url(#6e93855ce2)"><g clip-path="url(#b4b1ed9d16)"><path fill="#100f0d" d="M 696.171875 774.214844 C 671.761719 760.433594 647.101562 746.601562 622.34375 732.804688 L 585.078125 712.085938 L 547.566406 691.34375 L 395.710938 607.769531 C 344.691406 579.628906 293.441406 551.117188 242.382812 522.210938 C 191.324219 493.339844 140.585938 463.855469 90.390625 434.132812 L 78.871094 427.296875 L 91.335938 422.925781 L 141.503906 405.398438 L 191.675781 387.941406 L 241.847656 370.449219 C 258.566406 364.558594 275.253906 358.707031 291.9375 352.785156 L 290.839844 357.808594 C 272.277344 338.894531 253.6875 320.085938 234.992188 301.28125 C 216.296875 282.511719 197.570312 263.816406 178.777344 245.15625 C 159.984375 226.5 141.160156 207.878906 122.269531 189.328125 C 103.375 170.746094 84.449219 152.269531 65.492188 133.761719 L 61.582031 129.945312 L 66.667969 127.648438 L 194.703125 70.101562 L 226.710938 55.738281 L 258.757812 41.445312 C 280.113281 31.917969 301.503906 22.460938 322.933594 12.996094 L 328.265625 10.652344 L 331.667969 15.507812 L 459.496094 196.503906 C 480.789062 226.675781 502.015625 256.921875 523.171875 287.171875 C 544.328125 317.417969 565.421875 347.742188 586.445312 378.105469 L 592.804688 387.28125 L 582.417969 391.1875 L 540.960938 406.785156 L 499.5 422.3125 L 458 437.769531 L 416.5 453.195312 L 419.5625 441.105469 C 443.222656 469.089844 466.820312 497.179688 490.246094 525.386719 C 501.941406 539.488281 513.636719 553.59375 525.191406 567.667969 L 542.542969 588.78125 L 559.785156 609.832031 C 582.746094 637.851562 605.453125 665.640625 628.136719 693.046875 C 650.820312 720.417969 673.523438 747.507812 696.171875 774.214844 Z M 694.925781 773.160156 C 670.640625 745.28125 646.375 717.75 622.09375 690.535156 C 597.808594 663.316406 573.582031 636.484375 549.574219 609.917969 L 513.75 570.199219 C 501.855469 556.980469 490.035156 543.792969 478.246094 530.570312 C 454.703125 504.152344 431.332031 477.660156 408.023438 451.023438 L 400.914062 442.898438 L 411.089844 438.933594 L 452.347656 422.855469 L 493.640625 406.8125 L 534.9375 390.839844 L 576.269531 374.902344 L 572.242188 387.988281 C 551.019531 357.777344 529.859375 327.492188 508.734375 297.203125 C 487.578125 266.921875 466.554688 236.558594 445.566406 206.195312 L 319.828125 23.726562 L 328.597656 26.199219 C 307.050781 35.351562 285.5 44.433594 263.945312 53.484375 L 231.578125 67.058594 L 199.210938 80.5625 L 69.625 134.554688 L 70.804688 128.441406 C 89.332031 147.394531 107.859375 166.3125 126.453125 185.15625 C 145.011719 204 163.636719 222.808594 182.332031 241.574219 C 201.023438 260.34375 219.75 279.042969 238.542969 297.699219 C 257.335938 316.359375 276.195312 334.941406 295.121094 353.453125 L 298.515625 356.773438 L 294.023438 358.480469 C 277.460938 364.746094 260.902344 371.042969 244.378906 377.34375 L 194.78125 396.378906 L 145.183594 415.453125 L 95.585938 434.488281 L 96.53125 423.316406 C 146.691406 451.082031 196.304688 479.085938 245.566406 507.703125 C 294.859375 536.320312 343.964844 565.292969 393.300781 594.640625 C 442.632812 623.992188 492.269531 653.707031 542.46875 683.535156 L 580.238281 705.90625 L 618.222656 728.300781 C 643.640625 743.285156 669.160156 758.195312 694.925781 773.160156 Z M 694.925781 773.160156 " fill-opacity="1" fill-rule="nonzero"/></g></g></g></svg>