<svg xmlns="http://www.w3.org/2000/svg" xmlns:xlink="http://www.w3.org/1999/xlink" width="1080" zoomAndPan="magnify" viewBox="0 0 810 809.999993" height="1080" preserveAspectRatio="xMidYMid meet" version="1.0"><defs><g/><clipPath id="1ef1b8e45e"><path d="M 49 45 L 810 45 L 810 810 L 49 810 Z M 49 45 " clip-rule="nonzero"/></clipPath><clipPath id="dcf25c0995"><path d="M 50.769531 44.957031 L 821.15625 46.761719 L 819.347656 817.148438 L 48.960938 815.34375 Z M 50.769531 44.957031 " clip-rule="nonzero"/></clipPath><clipPath id="f4ff897284"><path d="M 819.4375 778.789062 C 819.386719 799.871094 802.226562 816.953125 781.144531 816.902344 L 87.324219 815.273438 C 66.082031 815.382812 49 798.222656 49.050781 776.980469 L 50.679688 83.316406 C 50.726562 62.078125 67.886719 44.996094 89.128906 45.046875 L 782.953125 46.675781 C 804.035156 46.722656 821.113281 63.882812 821.066406 85.125 Z M 819.4375 778.789062 " clip-rule="nonzero"/></clipPath><clipPath id="4ed07a99bc"><path d="M 37 33 L 810 33 L 810 810 L 37 810 Z M 37 33 " clip-rule="nonzero"/></clipPath><clipPath id="3c6e971453"><path d="M 39.699219 33.835938 L 832.277344 35.695312 L 830.414062 829.855469 L 37.835938 828 Z M 39.699219 33.835938 " clip-rule="nonzero"/></clipPath><clipPath id="4b7d85e864"><path d="M 780.960938 828.15625 L 87.296875 826.527344 C 60.03125 826.464844 37.890625 804.222656 37.957031 776.957031 L 39.582031 83.292969 C 39.644531 56.027344 61.890625 33.886719 89.15625 33.949219 L 782.976562 35.578125 C 810.085938 35.640625 832.226562 57.886719 832.160156 85.148438 L 830.535156 778.972656 C 830.46875 806.078125 808.226562 828.21875 780.960938 828.15625 Z M 89.101562 56.300781 C 74.203125 56.265625 61.96875 68.441406 61.933594 83.34375 L 60.304688 777.167969 C 60.269531 792.066406 72.449219 804.300781 87.347656 804.335938 L 781.171875 805.964844 C 796.070312 806 808.304688 793.820312 808.339844 778.921875 L 809.96875 85.097656 C 810.003906 70.199219 797.828125 57.964844 782.925781 57.929688 Z M 89.101562 56.300781 " clip-rule="nonzero"/></clipPath><clipPath id="d04dbde895"><path d="M 11 16 L 784 16 L 784 789 L 11 789 Z M 11 16 " clip-rule="nonzero"/></clipPath><clipPath id="e0df2d9619"><path d="M 12.929688 16.636719 L 783.316406 18.445312 L 781.507812 788.832031 L 11.121094 787.023438 Z M 12.929688 16.636719 " clip-rule="nonzero"/></clipPath><clipPath id="c1d09b1b57"><path d="M 781.597656 750.46875 C 781.550781 771.554688 764.390625 788.632812 743.304688 788.582031 L 49.484375 786.957031 C 28.242188 787.0625 11.164062 769.90625 11.210938 748.664062 L 12.839844 55 C 12.890625 33.757812 30.046875 16.679688 51.289062 16.726562 L 745.113281 18.355469 C 766.195312 18.40625 783.273438 35.566406 783.226562 56.804688 Z M 781.597656 750.46875 " clip-rule="nonzero"/></clipPath><clipPath id="3a933f1ca1"><path d="M 0 5 L 795 5 L 795 800 L 0 800 Z M 0 5 " clip-rule="nonzero"/></clipPath><clipPath id="ff3967dfb3"><path d="M 1.859375 5.515625 L 794.4375 7.375 L 792.574219 801.539062 L -0.00390625 799.679688 Z M 1.859375 5.515625 " clip-rule="nonzero"/></clipPath><clipPath id="3b30537a1b"><path d="M 743.121094 799.835938 L 49.457031 798.210938 C 22.191406 798.144531 0.0507812 775.902344 0.117188 748.636719 L 1.742188 54.972656 C 1.808594 27.707031 24.050781 5.566406 51.316406 5.632812 L 745.140625 7.257812 C 772.246094 7.324219 794.386719 29.566406 794.320312 56.832031 L 792.695312 750.65625 C 792.628906 777.761719 770.386719 799.902344 743.121094 799.835938 Z M 51.261719 27.984375 C 36.363281 27.949219 24.128906 40.125 24.09375 55.023438 L 22.464844 748.847656 C 22.429688 763.75 34.609375 775.984375 49.507812 776.019531 L 743.332031 777.644531 C 758.234375 777.679688 770.46875 765.503906 770.503906 750.601562 L 772.128906 56.78125 C 772.164062 41.878906 759.988281 29.644531 745.085938 29.609375 Z M 51.261719 27.984375 " clip-rule="nonzero"/></clipPath></defs><g clip-path="url(#1ef1b8e45e)"><g clip-path="url(#dcf25c0995)"><g clip-path="url(#f4ff897284)"><path fill="#0a0908" d="M 39.699219 33.835938 L 832.277344 35.695312 L 830.417969 828.273438 L 37.839844 826.414062 Z M 39.699219 33.835938 " fill-opacity="1" fill-rule="nonzero"/></g></g></g><g clip-path="url(#4ed07a99bc)"><g clip-path="url(#3c6e971453)"><g clip-path="url(#4b7d85e864)"><path fill="#ffffff" d="M 39.699219 33.835938 L 832.277344 35.695312 L 830.417969 828.273438 L 37.839844 826.414062 Z M 39.699219 33.835938 " fill-opacity="1" fill-rule="nonzero"/></g></g></g><g clip-path="url(#d04dbde895)"><g clip-path="url(#e0df2d9619)"><g clip-path="url(#c1d09b1b57)"><path fill="#ffffff" d="M 1.859375 5.515625 L 794.4375 7.375 L 792.578125 799.953125 L 0 798.09375 Z M 1.859375 5.515625 " fill-opacity="1" fill-rule="nonzero"/></g></g></g><g clip-path="url(#3a933f1ca1)"><g clip-path="url(#ff3967dfb3)"><g clip-path="url(#3b30537a1b)"><path fill="#0a0908" d="M 1.859375 5.515625 L 794.4375 7.375 L 792.578125 799.953125 L 0 798.09375 Z M 1.859375 5.515625 " fill-opacity="1" fill-rule="nonzero"/></g></g></g><g fill="#0a0908" fill-opacity="1"><g transform="translate(88.259298, 274.832637)"><g><path d="M 104.765625 -51.515625 L 74.703125 -51.59375 L 74.578125 0.171875 L 19.484375 0.046875 L 19.9375 -194.765625 L 108.984375 -194.5625 C 126.609375 -194.519531 141.90625 -191.5625 154.875 -185.6875 C 167.851562 -179.8125 177.859375 -171.4375 184.890625 -160.5625 C 191.921875 -149.695312 195.414062 -136.9375 195.375 -122.28125 C 195.34375 -108.175781 192.019531 -95.890625 185.40625 -85.421875 C 178.789062 -74.953125 169.351562 -66.765625 157.09375 -60.859375 L 198.984375 0.46875 L 139.984375 0.328125 Z M 139.703125 -122.40625 C 139.722656 -131.488281 136.863281 -138.539062 131.125 -143.5625 C 125.394531 -148.59375 116.875 -151.117188 105.5625 -151.140625 L 74.9375 -151.21875 L 74.796875 -94.171875 L 105.421875 -94.09375 C 116.734375 -94.070312 125.269531 -96.507812 131.03125 -101.40625 C 136.789062 -106.3125 139.679688 -113.3125 139.703125 -122.40625 Z M 139.703125 -122.40625 "/></g></g></g><g fill="#0a0908" fill-opacity="1"><g transform="translate(270.535954, 275.260159)"><g><path d="M 117.703125 4.171875 C 97.109375 4.117188 78.609375 -0.28125 62.203125 -9.03125 C 45.804688 -17.789062 32.941406 -29.882812 23.609375 -45.3125 C 14.285156 -60.738281 9.648438 -78.097656 9.703125 -97.390625 C 9.742188 -116.679688 14.460938 -134.015625 23.859375 -149.390625 C 33.265625 -164.765625 46.1875 -176.789062 62.625 -185.46875 C 79.070312 -194.15625 97.59375 -198.472656 118.1875 -198.421875 C 138.78125 -198.378906 157.273438 -193.976562 173.671875 -185.21875 C 190.078125 -176.457031 202.945312 -164.363281 212.28125 -148.9375 C 221.613281 -133.519531 226.257812 -116.164062 226.21875 -96.875 C 226.164062 -77.582031 221.4375 -60.242188 212.03125 -44.859375 C 202.625 -29.484375 189.695312 -17.457031 173.25 -8.78125 C 156.8125 -0.101562 138.296875 4.210938 117.703125 4.171875 Z M 117.8125 -41.46875 C 127.644531 -41.445312 136.554688 -43.742188 144.546875 -48.359375 C 152.535156 -52.984375 158.859375 -59.507812 163.515625 -67.9375 C 168.171875 -76.375 170.515625 -86.066406 170.546875 -97.015625 C 170.566406 -107.960938 168.269531 -117.660156 163.65625 -126.109375 C 159.039062 -134.566406 152.75 -141.117188 144.78125 -145.765625 C 136.8125 -150.421875 127.910156 -152.757812 118.078125 -152.78125 C 108.242188 -152.8125 99.332031 -150.515625 91.34375 -145.890625 C 83.351562 -141.273438 77.03125 -134.75 72.375 -126.3125 C 67.71875 -117.882812 65.378906 -108.195312 65.359375 -97.25 C 65.328125 -86.300781 67.617188 -76.597656 72.234375 -68.140625 C 76.847656 -59.691406 83.140625 -53.140625 91.109375 -48.484375 C 99.078125 -43.835938 107.976562 -41.5 117.8125 -41.46875 Z M 117.8125 -41.46875 "/></g></g></g><g fill="#0a0908" fill-opacity="1"><g transform="translate(482.311113, 275.756868)"><g><path d="M 169.4375 -101.1875 C 180.5625 -97.257812 189.269531 -91.160156 195.5625 -82.890625 C 201.851562 -74.617188 204.984375 -64.640625 204.953125 -52.953125 C 204.910156 -35.878906 198.015625 -22.722656 184.265625 -13.484375 C 170.515625 -4.242188 150.648438 0.347656 124.671875 0.296875 L 19.484375 0.046875 L 19.9375 -194.765625 L 119.5625 -194.53125 C 144.425781 -194.476562 163.335938 -189.84375 176.296875 -180.625 C 189.265625 -171.40625 195.726562 -159.003906 195.6875 -143.421875 C 195.664062 -134.148438 193.375 -125.851562 188.8125 -118.53125 C 184.257812 -111.21875 177.800781 -105.4375 169.4375 -101.1875 Z M 74.390625 -154.84375 L 74.3125 -117.265625 L 112.15625 -117.171875 C 130.707031 -117.128906 139.992188 -123.414062 140.015625 -136.03125 C 140.046875 -148.46875 130.785156 -154.707031 112.234375 -154.75 Z M 120.3125 -39.515625 C 139.613281 -39.472656 149.28125 -46.039062 149.3125 -59.21875 C 149.34375 -72.382812 139.707031 -78.988281 120.40625 -79.03125 L 74.21875 -79.140625 L 74.125 -39.625 Z M 120.3125 -39.515625 "/></g></g></g><g fill="#0a0908" fill-opacity="1"><g transform="translate(116.342187, 496.087839)"><g><path d="M 71.734375 4.671875 C 55.210938 4.628906 40.203125 1.753906 26.703125 -3.953125 C 13.210938 -9.671875 2.1875 -17.90625 -6.375 -28.65625 L 28.46875 -69.75 C 40.445312 -54.0625 53.410156 -46.203125 67.359375 -46.171875 C 76.578125 -46.148438 83.601562 -48.921875 88.4375 -54.484375 C 93.28125 -60.054688 95.71875 -68.207031 95.75 -78.9375 L 95.96875 -175.78125 L 18.109375 -175.953125 L 18.234375 -225.171875 L 159.15625 -224.84375 L 158.8125 -82.640625 C 158.75 -53.460938 151.351562 -31.597656 136.625 -17.046875 C 121.894531 -2.503906 100.265625 4.734375 71.734375 4.671875 Z M 71.734375 4.671875 "/></g></g></g><g fill="#0a0908" fill-opacity="1"><g transform="translate(268.19863, 496.444012)"><g><path d="M 203.453125 -48.765625 L 203.34375 0.46875 L 22.515625 0.046875 L 23.046875 -225.171875 L 199.6875 -224.75 L 199.5625 -175.53125 L 85.984375 -175.796875 L 85.90625 -137.828125 L 185.984375 -137.59375 L 185.875 -89.96875 L 85.796875 -90.203125 L 85.6875 -49.03125 Z M 203.453125 -48.765625 "/></g></g></g><g fill="#0a0908" fill-opacity="1"><g transform="translate(457.054563, 496.886965)"><g><path d="M 143.359375 -80.4375 L 143.171875 0.328125 L 79.46875 0.1875 L 79.65625 -81.53125 L -5.90625 -225.234375 L 61.34375 -225.078125 L 114.53125 -135.515625 L 168.15625 -224.828125 L 229.9375 -224.6875 Z M 143.359375 -80.4375 "/></g></g></g><g fill="#0a0908" fill-opacity="1"><g transform="translate(90.411695, 711.540944)"><g><path d="M 192.140625 -114.734375 C 204.753906 -110.296875 214.625 -103.382812 221.75 -94 C 228.882812 -84.613281 232.4375 -73.296875 232.40625 -60.046875 C 232.363281 -40.691406 224.546875 -25.769531 208.953125 -15.28125 C 193.359375 -4.800781 170.832031 0.398438 141.375 0.328125 L 22.09375 0.046875 L 22.609375 -220.859375 L 135.578125 -220.59375 C 163.773438 -220.53125 185.222656 -215.269531 199.921875 -204.8125 C 214.617188 -194.363281 221.945312 -180.304688 221.90625 -162.640625 C 221.882812 -152.117188 219.285156 -142.707031 214.109375 -134.40625 C 208.941406 -126.101562 201.617188 -119.546875 192.140625 -114.734375 Z M 84.34375 -175.578125 L 84.25 -132.96875 L 127.171875 -132.875 C 148.210938 -132.820312 158.75 -139.953125 158.78125 -154.265625 C 158.8125 -168.359375 148.304688 -175.429688 127.265625 -175.484375 Z M 136.4375 -44.8125 C 158.320312 -44.757812 169.28125 -52.203125 169.3125 -67.140625 C 169.34375 -82.078125 158.414062 -89.570312 136.53125 -89.625 L 84.140625 -89.734375 L 84.046875 -44.921875 Z M 136.4375 -44.8125 "/></g></g></g><g fill="#0a0908" fill-opacity="1"><g transform="translate(306.231636, 712.04714)"><g><path d="M 199.5625 -47.8125 L 199.453125 0.46875 L 22.09375 0.046875 L 22.609375 -220.859375 L 195.859375 -220.453125 L 195.75 -172.171875 L 84.34375 -172.421875 L 84.25 -135.1875 L 182.40625 -134.96875 L 182.296875 -88.25 L 84.140625 -88.46875 L 84.046875 -48.078125 Z M 199.5625 -47.8125 "/></g></g></g><g fill="#0a0908" fill-opacity="1"><g transform="translate(491.444734, 712.481549)"><g><path d="M 199.5625 -47.8125 L 199.453125 0.46875 L 22.09375 0.046875 L 22.609375 -220.859375 L 195.859375 -220.453125 L 195.75 -172.171875 L 84.34375 -172.421875 L 84.25 -135.1875 L 182.40625 -134.96875 L 182.296875 -88.25 L 84.140625 -88.46875 L 84.046875 -48.078125 Z M 199.5625 -47.8125 "/></g></g></g></svg>