<svg xmlns="http://www.w3.org/2000/svg" xmlns:xlink="http://www.w3.org/1999/xlink" width="1080" zoomAndPan="magnify" viewBox="0 0 810 809.999993" height="1080" preserveAspectRatio="xMidYMid meet" version="1.0"><path fill="#fa4a73" d="M 405 0 C 628.667969 0 810 181.320312 810 405 C 810 628.679688 628.667969 810 405 810 C 181.316406 810 0 628.679688 0 405 C 0 181.320312 181.316406 0 405 0 " fill-opacity="1" fill-rule="evenodd"/><path fill="#ffffff" d="M 245.347656 499.277344 L 311.089844 565.019531 L 613.152344 262.953125 L 547.410156 197.210938 Z M 304.570312 584.558594 L 225.804688 505.796875 C 222.203125 502.191406 222.203125 496.347656 225.804688 492.757812 L 540.835938 177.714844 L 540.894531 177.671875 C 544.480469 174.066406 550.328125 174.066406 553.929688 177.671875 L 632.636719 256.390625 L 632.695312 256.4375 C 636.296875 260.039062 636.296875 265.871094 632.695312 269.472656 L 317.652344 584.5 L 317.605469 584.558594 C 314.003906 588.164062 308.171875 588.164062 304.570312 584.558594 " fill-opacity="1" fill-rule="nonzero"/><path fill="#ffffff" d="M 573.765625 302.34375 L 508.023438 236.601562 L 481.667969 262.953125 L 547.410156 328.695312 Z M 514.539062 217.0625 L 593.261719 295.765625 L 593.304688 295.824219 C 596.910156 299.429688 596.910156 305.257812 593.304688 308.863281 L 553.972656 348.195312 L 553.929688 348.253906 C 550.328125 351.839844 544.480469 351.839844 540.894531 348.253906 L 540.894531 348.238281 L 462.171875 269.515625 L 462.113281 269.472656 C 458.511719 265.871094 458.511719 260.039062 462.113281 256.4375 L 501.460938 217.105469 L 501.503906 217.0625 C 505.105469 213.457031 510.9375 213.457031 514.539062 217.0625 " fill-opacity="1" fill-rule="nonzero"/><path fill="#ffffff" d="M 238.988281 492.917969 L 317.605469 571.523438 C 321.210938 575.125 321.210938 580.957031 317.605469 584.558594 C 316.433594 585.730469 315.042969 586.523438 313.550781 586.933594 L 187.046875 634.410156 L 187.058594 634.453125 C 182.285156 636.238281 176.980469 633.824219 175.179688 629.0625 C 174.316406 626.734375 174.449219 624.273438 175.355469 622.148438 L 223.710938 495.996094 L 232.324219 499.277344 L 223.710938 495.980469 C 225.527344 491.21875 230.859375 488.847656 235.621094 490.664062 C 236.9375 491.175781 238.082031 491.953125 238.988281 492.917969 Z M 294.476562 574.46875 L 235.839844 515.816406 L 199.714844 610.046875 Z M 294.476562 574.46875 " fill-opacity="1" fill-rule="nonzero"/></svg>