<svg xmlns="http://www.w3.org/2000/svg" xmlns:xlink="http://www.w3.org/1999/xlink" width="1080" zoomAndPan="magnify" viewBox="0 0 810 809.999993" height="1080" preserveAspectRatio="xMidYMid meet" version="1.0"><defs><g/><clipPath id="6b4fc48cb1"><path d="M 50 45 L 796 45 L 796 791 L 50 791 Z M 50 45 " clip-rule="nonzero"/></clipPath><clipPath id="83c352c2b8"><path d="M 52.351562 45.367188 L 795.601562 47.109375 L 793.859375 790.359375 L 50.609375 788.617188 Z M 52.351562 45.367188 " clip-rule="nonzero"/></clipPath><clipPath id="a2964f4701"><path d="M 793.945312 753.351562 C 793.898438 773.691406 777.339844 790.167969 757 790.121094 L 87.617188 788.550781 C 67.125 788.65625 50.644531 772.101562 50.695312 751.605469 L 52.265625 82.375 C 52.3125 61.882812 68.867188 45.40625 89.359375 45.453125 L 758.746094 47.023438 C 779.085938 47.070312 795.5625 63.625 795.515625 84.121094 Z M 793.945312 753.351562 " clip-rule="nonzero"/></clipPath><clipPath id="f289b7e295"><path d="M 39 34 L 807 34 L 807 801 L 39 801 Z M 39 34 " clip-rule="nonzero"/></clipPath><clipPath id="117144a34f"><path d="M 41.671875 34.636719 L 806.332031 36.429688 L 804.535156 802.621094 L 39.875 800.828125 Z M 41.671875 34.636719 " clip-rule="nonzero"/></clipPath><clipPath id="a48f77c54b"><path d="M 756.824219 800.980469 L 87.59375 799.410156 C 61.289062 799.347656 39.925781 777.886719 39.988281 751.582031 L 41.558594 82.351562 C 41.621094 56.046875 63.082031 34.6875 89.386719 34.75 L 758.769531 36.316406 C 784.921875 36.378906 806.28125 57.839844 806.21875 84.144531 L 804.648438 753.527344 C 804.589844 779.679688 783.128906 801.039062 756.824219 800.980469 Z M 89.335938 56.3125 C 74.960938 56.277344 63.15625 68.027344 63.121094 82.402344 L 61.550781 751.785156 C 61.519531 766.160156 73.265625 777.964844 87.640625 778 L 757.027344 779.570312 C 771.402344 779.601562 783.207031 767.855469 783.238281 753.476562 L 784.808594 84.09375 C 784.84375 69.71875 773.09375 57.914062 758.71875 57.882812 Z M 89.335938 56.3125 " clip-rule="nonzero"/></clipPath><clipPath id="8160e04282"><path d="M 14 18 L 760 18 L 760 763 L 14 763 Z M 14 18 " clip-rule="nonzero"/></clipPath><clipPath id="722c7b0456"><path d="M 15.84375 18.046875 L 759.09375 19.789062 L 757.351562 763.039062 L 14.101562 761.296875 Z M 15.84375 18.046875 " clip-rule="nonzero"/></clipPath><clipPath id="9aa7820bbf"><path d="M 757.4375 726.027344 C 757.390625 746.371094 740.835938 762.847656 720.496094 762.800781 L 51.109375 761.230469 C 30.617188 761.335938 14.140625 744.777344 14.1875 724.285156 L 15.757812 55.054688 C 15.804688 34.5625 32.359375 18.085938 52.855469 18.132812 L 722.238281 19.703125 C 742.578125 19.75 759.054688 36.304688 759.007812 56.796875 L 757.4375 726.03125 Z M 757.4375 726.027344 " clip-rule="nonzero"/></clipPath><clipPath id="b5a8df0048"><path d="M 3 7 L 770 7 L 770 774 L 3 774 Z M 3 7 " clip-rule="nonzero"/></clipPath><clipPath id="fb01742a88"><path d="M 5.164062 7.316406 L 769.824219 9.109375 L 768.027344 775.296875 L 3.367188 773.503906 Z M 5.164062 7.316406 " clip-rule="nonzero"/></clipPath><clipPath id="13db604bff"><path d="M 720.316406 773.65625 L 51.085938 772.085938 C 24.78125 772.027344 3.421875 750.566406 3.484375 724.261719 L 5.050781 55.03125 C 5.113281 28.726562 26.574219 7.367188 52.878906 7.425781 L 722.261719 8.996094 C 748.414062 9.058594 769.773438 30.519531 769.714844 56.824219 L 768.144531 726.207031 C 768.082031 752.359375 746.621094 773.71875 720.316406 773.65625 Z M 52.828125 28.992188 C 38.453125 28.957031 26.648438 40.703125 26.617188 55.082031 L 25.046875 724.464844 C 25.011719 738.839844 36.761719 750.644531 51.136719 750.675781 L 720.519531 752.246094 C 734.894531 752.28125 746.699219 740.53125 746.734375 726.15625 L 748.300781 56.773438 C 748.335938 42.398438 736.589844 30.59375 722.210938 30.5625 Z M 52.828125 28.992188 " clip-rule="nonzero"/></clipPath></defs><g clip-path="url(#6b4fc48cb1)"><g clip-path="url(#83c352c2b8)"><g clip-path="url(#a2964f4701)"><path fill="#0a0908" d="M 41.671875 34.636719 L 806.332031 36.429688 L 804.539062 801.089844 L 39.878906 799.296875 Z M 41.671875 34.636719 " fill-opacity="1" fill-rule="nonzero"/></g></g></g><g clip-path="url(#f289b7e295)"><g clip-path="url(#117144a34f)"><g clip-path="url(#a48f77c54b)"><path fill="#ffffff" d="M 41.671875 34.636719 L 806.332031 36.429688 L 804.539062 801.089844 L 39.878906 799.296875 Z M 41.671875 34.636719 " fill-opacity="1" fill-rule="nonzero"/></g></g></g><g clip-path="url(#8160e04282)"><g clip-path="url(#722c7b0456)"><g clip-path="url(#9aa7820bbf)"><path fill="#ffffff" d="M 5.164062 7.316406 L 769.824219 9.109375 L 768.03125 773.769531 L 3.371094 771.976562 Z M 5.164062 7.316406 " fill-opacity="1" fill-rule="nonzero"/></g></g></g><g clip-path="url(#b5a8df0048)"><g clip-path="url(#fb01742a88)"><g clip-path="url(#13db604bff)"><path fill="#0a0908" d="M 5.164062 7.316406 L 769.824219 9.109375 L 768.03125 773.769531 L 3.371094 771.976562 Z M 5.164062 7.316406 " fill-opacity="1" fill-rule="nonzero"/></g></g></g><g fill="#0a0908" fill-opacity="1"><g transform="translate(88.5214, 267.145607)"><g><path d="M 101.0625 -49.703125 L 72.0625 -49.765625 L 71.953125 0.171875 L 18.796875 0.046875 L 19.234375 -187.890625 L 105.140625 -187.6875 C 122.148438 -187.65625 136.910156 -184.804688 149.421875 -179.140625 C 161.941406 -173.472656 171.585938 -165.394531 178.359375 -154.90625 C 185.140625 -144.414062 188.515625 -132.101562 188.484375 -117.96875 C 188.453125 -104.363281 185.242188 -92.507812 178.859375 -82.40625 C 172.484375 -72.3125 163.382812 -64.410156 151.5625 -58.703125 L 191.96875 0.453125 L 135.046875 0.3125 Z M 134.796875 -118.09375 C 134.816406 -126.863281 132.054688 -133.671875 126.515625 -138.515625 C 120.972656 -143.359375 112.742188 -145.796875 101.828125 -145.828125 L 72.296875 -145.890625 L 72.171875 -90.84375 L 101.703125 -90.78125 C 112.617188 -90.75 120.859375 -93.097656 126.421875 -97.828125 C 131.984375 -102.566406 134.773438 -109.320312 134.796875 -118.09375 Z M 134.796875 -118.09375 "/></g></g></g><g fill="#0a0908" fill-opacity="1"><g transform="translate(264.377486, 267.55807)"><g><path d="M 113.546875 4.03125 C 93.679688 3.988281 75.835938 -0.257812 60.015625 -8.71875 C 44.203125 -17.175781 31.789062 -28.84375 22.78125 -43.71875 C 13.78125 -58.59375 9.300781 -75.335938 9.34375 -93.953125 C 9.382812 -112.566406 13.941406 -129.289062 23.015625 -144.125 C 32.097656 -158.957031 44.566406 -170.5625 60.421875 -178.9375 C 76.285156 -187.3125 94.148438 -191.476562 114.015625 -191.4375 C 133.890625 -191.394531 151.734375 -187.144531 167.546875 -178.6875 C 183.367188 -170.226562 195.78125 -158.5625 204.78125 -143.6875 C 213.789062 -128.8125 218.273438 -112.066406 218.234375 -93.453125 C 218.191406 -74.835938 213.628906 -58.113281 204.546875 -43.28125 C 195.472656 -28.445312 183.003906 -16.84375 167.140625 -8.46875 C 151.285156 -0.09375 133.421875 4.070312 113.546875 4.03125 Z M 113.65625 -40 C 123.144531 -39.976562 131.742188 -42.195312 139.453125 -46.65625 C 147.160156 -51.113281 153.257812 -57.40625 157.75 -65.53125 C 162.25 -73.664062 164.507812 -83.015625 164.53125 -93.578125 C 164.550781 -104.140625 162.332031 -113.492188 157.875 -121.640625 C 153.425781 -129.796875 147.359375 -136.125 139.671875 -140.625 C 131.984375 -145.125 123.394531 -147.382812 113.90625 -147.40625 C 104.425781 -147.425781 95.832031 -145.207031 88.125 -140.75 C 80.414062 -136.289062 74.3125 -129.992188 69.8125 -121.859375 C 65.320312 -113.734375 63.066406 -104.390625 63.046875 -93.828125 C 63.023438 -83.265625 65.238281 -73.90625 69.6875 -65.75 C 74.144531 -57.601562 80.21875 -51.28125 87.90625 -46.78125 C 95.59375 -42.28125 104.175781 -40.019531 113.65625 -40 Z M 113.65625 -40 "/></g></g></g><g fill="#0a0908" fill-opacity="1"><g transform="translate(468.69301, 268.037283)"><g><path d="M 163.46875 -97.625 C 174.195312 -93.832031 182.59375 -87.945312 188.65625 -79.96875 C 194.726562 -71.988281 197.753906 -62.359375 197.734375 -51.078125 C 197.691406 -34.609375 191.035156 -21.914062 177.765625 -13 C 164.503906 -4.082031 145.34375 0.34375 120.28125 0.28125 L 18.796875 0.046875 L 19.234375 -187.890625 L 115.34375 -187.671875 C 139.332031 -187.609375 157.578125 -183.132812 170.078125 -174.25 C 182.585938 -165.363281 188.828125 -153.40625 188.796875 -138.375 C 188.773438 -129.414062 186.5625 -121.40625 182.15625 -114.34375 C 177.757812 -107.289062 171.53125 -101.71875 163.46875 -97.625 Z M 71.765625 -149.375 L 71.6875 -113.125 L 108.203125 -113.046875 C 126.097656 -113.003906 135.0625 -119.070312 135.09375 -131.25 C 135.113281 -143.238281 126.175781 -149.253906 108.28125 -149.296875 Z M 116.078125 -38.125 C 134.691406 -38.070312 144.015625 -44.398438 144.046875 -57.109375 C 144.066406 -69.816406 134.769531 -76.195312 116.15625 -76.25 L 71.59375 -76.34375 L 71.515625 -38.21875 Z M 116.078125 -38.125 "/></g></g></g><g fill="#0a0908" fill-opacity="1"><g transform="translate(115.615075, 480.607195)"><g><path d="M 69.203125 4.5 C 53.265625 4.46875 38.785156 1.695312 25.765625 -3.8125 C 12.742188 -9.332031 2.109375 -17.273438 -6.140625 -27.640625 L 27.46875 -67.296875 C 39.03125 -52.160156 51.535156 -44.578125 64.984375 -44.546875 C 73.878906 -44.523438 80.660156 -47.195312 85.328125 -52.5625 C 89.992188 -57.9375 92.335938 -65.796875 92.359375 -76.140625 L 92.578125 -169.578125 L 17.46875 -169.75 L 17.578125 -217.234375 L 153.53125 -216.921875 L 153.21875 -79.71875 C 153.15625 -51.582031 146.015625 -30.492188 131.796875 -16.453125 C 117.585938 -2.410156 96.722656 4.570312 69.203125 4.5 Z M 69.203125 4.5 "/></g></g></g><g fill="#0a0908" fill-opacity="1"><g transform="translate(262.12248, 480.950822)"><g><path d="M 196.28125 -47.03125 L 196.171875 0.453125 L 21.734375 0.046875 L 22.234375 -217.234375 L 192.640625 -216.828125 L 192.53125 -169.34375 L 82.953125 -169.609375 L 82.875 -132.984375 L 179.421875 -132.75 L 179.3125 -86.796875 L 82.765625 -87.03125 L 82.671875 -47.296875 Z M 196.28125 -47.03125 "/></g></g></g><g fill="#0a0908" fill-opacity="1"><g transform="translate(444.326094, 481.378173)"><g><path d="M 138.3125 -77.578125 L 138.125 0.328125 L 76.671875 0.171875 L 76.859375 -78.671875 L -5.703125 -217.296875 L 59.171875 -217.140625 L 110.5 -130.734375 L 162.21875 -216.90625 L 221.8125 -216.765625 Z M 138.3125 -77.578125 "/></g></g></g><g fill="#0a0908" fill-opacity="1"><g transform="translate(90.597971, 688.471264)"><g><path d="M 185.375 -110.6875 C 197.539062 -106.40625 207.0625 -99.738281 213.9375 -90.6875 C 220.820312 -81.644531 224.25 -70.726562 224.21875 -57.9375 C 224.175781 -39.269531 216.628906 -24.875 201.578125 -14.75 C 186.535156 -4.632812 164.804688 0.382812 136.390625 0.3125 L 21.3125 0.046875 L 21.8125 -213.078125 L 130.8125 -212.828125 C 158.007812 -212.753906 178.695312 -207.675781 192.875 -197.59375 C 207.050781 -187.507812 214.125 -173.945312 214.09375 -156.90625 C 214.0625 -146.75 211.550781 -137.664062 206.5625 -129.65625 C 201.582031 -121.65625 194.519531 -115.332031 185.375 -110.6875 Z M 81.375 -169.390625 L 81.28125 -128.296875 L 122.6875 -128.203125 C 142.976562 -128.148438 153.140625 -135.023438 153.171875 -148.828125 C 153.203125 -162.421875 143.070312 -169.242188 122.78125 -169.296875 Z M 131.640625 -43.21875 C 152.742188 -43.175781 163.3125 -50.363281 163.34375 -64.78125 C 163.375 -79.1875 152.835938 -86.410156 131.734375 -86.453125 L 81.1875 -86.578125 L 81.09375 -43.34375 Z M 131.640625 -43.21875 "/></g></g></g><g fill="#0a0908" fill-opacity="1"><g transform="translate(298.815793, 688.95963)"><g><path d="M 192.53125 -46.125 L 192.421875 0.453125 L 21.3125 0.046875 L 21.8125 -213.078125 L 188.953125 -212.6875 L 188.84375 -166.09375 L 81.375 -166.34375 L 81.296875 -130.421875 L 175.984375 -130.203125 L 175.875 -85.140625 L 81.1875 -85.359375 L 81.09375 -46.390625 Z M 192.53125 -46.125 "/></g></g></g><g fill="#0a0908" fill-opacity="1"><g transform="translate(477.504877, 689.378737)"><g><path d="M 192.53125 -46.125 L 192.421875 0.453125 L 21.3125 0.046875 L 21.8125 -213.078125 L 188.953125 -212.6875 L 188.84375 -166.09375 L 81.375 -166.34375 L 81.296875 -130.421875 L 175.984375 -130.203125 L 175.875 -85.140625 L 81.1875 -85.359375 L 81.09375 -46.390625 Z M 192.53125 -46.125 "/></g></g></g></svg>