<svg xmlns="http://www.w3.org/2000/svg" xmlns:xlink="http://www.w3.org/1999/xlink" width="1080" zoomAndPan="magnify" viewBox="0 0 810 809.999993" height="1080" preserveAspectRatio="xMidYMid meet" version="1.0"><defs><g/><clipPath id="d617373c7d"><path d="M 49 45 L 810 45 L 810 810 L 49 810 Z M 49 45 " clip-rule="nonzero"/></clipPath><clipPath id="4b455cd542"><path d="M 50.769531 44.957031 L 821.15625 46.761719 L 819.347656 817.148438 L 48.960938 815.34375 Z M 50.769531 44.957031 " clip-rule="nonzero"/></clipPath><clipPath id="d492a183f3"><path d="M 819.4375 778.789062 C 819.386719 799.871094 802.226562 816.953125 781.144531 816.902344 L 87.324219 815.273438 C 66.082031 815.382812 49 798.222656 49.050781 776.980469 L 50.679688 83.316406 C 50.726562 62.078125 67.886719 44.996094 89.128906 45.046875 L 782.953125 46.675781 C 804.035156 46.722656 821.113281 63.882812 821.066406 85.125 Z M 819.4375 778.789062 " clip-rule="nonzero"/></clipPath><clipPath id="31f32f67e5"><path d="M 37 33 L 810 33 L 810 810 L 37 810 Z M 37 33 " clip-rule="nonzero"/></clipPath><clipPath id="f779b9f031"><path d="M 39.699219 33.835938 L 832.277344 35.695312 L 830.414062 829.855469 L 37.835938 828 Z M 39.699219 33.835938 " clip-rule="nonzero"/></clipPath><clipPath id="12e2b29b34"><path d="M 780.960938 828.15625 L 87.296875 826.527344 C 60.03125 826.464844 37.890625 804.222656 37.957031 776.957031 L 39.582031 83.292969 C 39.644531 56.027344 61.890625 33.886719 89.15625 33.949219 L 782.976562 35.578125 C 810.085938 35.640625 832.226562 57.886719 832.160156 85.148438 L 830.535156 778.972656 C 830.46875 806.078125 808.226562 828.21875 780.960938 828.15625 Z M 89.101562 56.300781 C 74.203125 56.265625 61.96875 68.441406 61.933594 83.34375 L 60.304688 777.167969 C 60.269531 792.066406 72.449219 804.300781 87.347656 804.335938 L 781.171875 805.964844 C 796.070312 806 808.304688 793.820312 808.339844 778.921875 L 809.96875 85.097656 C 810.003906 70.199219 797.828125 57.964844 782.925781 57.929688 Z M 89.101562 56.300781 " clip-rule="nonzero"/></clipPath><clipPath id="68107081b7"><path d="M 11 16 L 784 16 L 784 789 L 11 789 Z M 11 16 " clip-rule="nonzero"/></clipPath><clipPath id="3dc5de06ba"><path d="M 12.929688 16.636719 L 783.316406 18.445312 L 781.507812 788.832031 L 11.121094 787.023438 Z M 12.929688 16.636719 " clip-rule="nonzero"/></clipPath><clipPath id="64fdd9ec7c"><path d="M 781.597656 750.46875 C 781.550781 771.554688 764.390625 788.632812 743.304688 788.582031 L 49.484375 786.957031 C 28.242188 787.0625 11.164062 769.90625 11.210938 748.664062 L 12.839844 55 C 12.890625 33.757812 30.046875 16.679688 51.289062 16.726562 L 745.113281 18.355469 C 766.195312 18.40625 783.273438 35.566406 783.226562 56.804688 Z M 781.597656 750.46875 " clip-rule="nonzero"/></clipPath><clipPath id="8e0dcbbfbe"><path d="M 0 5 L 795 5 L 795 800 L 0 800 Z M 0 5 " clip-rule="nonzero"/></clipPath><clipPath id="09290a05bf"><path d="M 1.859375 5.515625 L 794.4375 7.375 L 792.574219 801.539062 L -0.00390625 799.679688 Z M 1.859375 5.515625 " clip-rule="nonzero"/></clipPath><clipPath id="286c99b56b"><path d="M 743.121094 799.835938 L 49.457031 798.210938 C 22.191406 798.144531 0.0507812 775.902344 0.117188 748.636719 L 1.742188 54.972656 C 1.808594 27.707031 24.050781 5.566406 51.316406 5.632812 L 745.140625 7.257812 C 772.246094 7.324219 794.386719 29.566406 794.320312 56.832031 L 792.695312 750.65625 C 792.628906 777.761719 770.386719 799.902344 743.121094 799.835938 Z M 51.261719 27.984375 C 36.363281 27.949219 24.128906 40.125 24.09375 55.023438 L 22.464844 748.847656 C 22.429688 763.75 34.609375 775.984375 49.507812 776.019531 L 743.332031 777.644531 C 758.234375 777.679688 770.46875 765.503906 770.503906 750.601562 L 772.128906 56.78125 C 772.164062 41.878906 759.988281 29.644531 745.085938 29.609375 Z M 51.261719 27.984375 " clip-rule="nonzero"/></clipPath></defs><g clip-path="url(#d617373c7d)"><g clip-path="url(#4b455cd542)"><g clip-path="url(#d492a183f3)"><path fill="#282825" d="M 39.699219 33.835938 L 832.277344 35.695312 L 830.417969 828.273438 L 37.839844 826.414062 Z M 39.699219 33.835938 " fill-opacity="1" fill-rule="nonzero"/></g></g></g><g clip-path="url(#31f32f67e5)"><g clip-path="url(#f779b9f031)"><g clip-path="url(#12e2b29b34)"><path fill="#ffffff" d="M 39.699219 33.835938 L 832.277344 35.695312 L 830.417969 828.273438 L 37.839844 826.414062 Z M 39.699219 33.835938 " fill-opacity="1" fill-rule="nonzero"/></g></g></g><g clip-path="url(#68107081b7)"><g clip-path="url(#3dc5de06ba)"><g clip-path="url(#64fdd9ec7c)"><path fill="#ffffff" d="M 1.859375 5.515625 L 794.4375 7.375 L 792.578125 799.953125 L 0 798.09375 Z M 1.859375 5.515625 " fill-opacity="1" fill-rule="nonzero"/></g></g></g><g clip-path="url(#8e0dcbbfbe)"><g clip-path="url(#09290a05bf)"><g clip-path="url(#286c99b56b)"><path fill="#282825" d="M 1.859375 5.515625 L 794.4375 7.375 L 792.578125 799.953125 L 0 798.09375 Z M 1.859375 5.515625 " fill-opacity="1" fill-rule="nonzero"/></g></g></g><g fill="#282825" fill-opacity="1"><g transform="translate(91.92239, 685.335129)"><g><path d="M 21.484375 -232.609375 L 130.828125 -232.359375 C 154.097656 -232.296875 173.023438 -226.320312 187.609375 -214.4375 C 202.203125 -202.550781 209.476562 -187.191406 209.4375 -168.359375 C 209.414062 -158.160156 206.847656 -148.859375 201.734375 -140.453125 C 196.617188 -132.046875 189.625 -125.082031 180.75 -119.5625 C 191.820312 -114.21875 200.671875 -106.941406 207.296875 -97.734375 C 213.921875 -88.523438 217.21875 -78.269531 217.1875 -66.96875 C 217.144531 -46.800781 209.628906 -30.53125 194.640625 -18.15625 C 179.648438 -5.78125 159.972656 0.375 135.609375 0.3125 L 20.9375 0.046875 Z M 127.75 -192.46875 L 69.578125 -192.609375 L 69.453125 -137.4375 L 127.625 -137.296875 C 137.8125 -137.273438 146.007812 -139.75 152.21875 -144.71875 C 158.4375 -149.6875 161.554688 -156.382812 161.578125 -164.8125 C 161.597656 -173.226562 158.507812 -179.9375 152.3125 -184.9375 C 146.125 -189.9375 137.9375 -192.445312 127.75 -192.46875 Z M 132.046875 -39.578125 C 143.117188 -39.554688 151.984375 -42.25 158.640625 -47.65625 C 165.296875 -53.070312 168.632812 -60.429688 168.65625 -69.734375 C 168.675781 -78.597656 165.367188 -85.804688 158.734375 -91.359375 C 152.109375 -96.921875 143.257812 -99.710938 132.1875 -99.734375 L 69.359375 -99.890625 L 69.21875 -39.734375 Z M 132.046875 -39.578125 "/></g></g></g><g fill="#282825" fill-opacity="1"><g transform="translate(293.330961, 685.807524)"><g><path d="M 20.9375 0.046875 L 21.484375 -232.609375 L 200.296875 -232.1875 L 200.203125 -190.3125 L 69.578125 -190.625 L 69.453125 -137.4375 L 155.546875 -137.234375 L 155.453125 -96.6875 L 69.359375 -96.890625 L 69.21875 -41.71875 L 201.171875 -41.40625 L 201.078125 0.46875 Z M 20.9375 0.046875 "/></g></g></g><g fill="#282825" fill-opacity="1"><g transform="translate(479.451054, 686.244061)"><g><path d="M 20.9375 0.046875 L 21.484375 -232.609375 L 200.296875 -232.1875 L 200.203125 -190.3125 L 69.578125 -190.625 L 69.453125 -137.4375 L 155.546875 -137.234375 L 155.453125 -96.6875 L 69.359375 -96.890625 L 69.21875 -41.71875 L 201.171875 -41.40625 L 201.078125 0.46875 Z M 20.9375 0.046875 "/></g></g></g><g fill="#282825" fill-opacity="1"><g transform="translate(94.79662, 332.171772)"><g><path d="M 18.703125 0.046875 L 19.1875 -207.828125 L 120.75 -207.59375 C 131.25 -207.570312 140.898438 -205.96875 149.703125 -202.78125 C 158.503906 -199.59375 166.066406 -195.171875 172.390625 -189.515625 C 178.710938 -183.859375 183.644531 -177.0625 187.1875 -169.125 C 190.738281 -161.195312 192.5 -152.484375 192.46875 -142.984375 C 192.445312 -129.921875 188.707031 -118.25 181.25 -107.96875 C 173.800781 -97.695312 163.9375 -90.097656 151.65625 -85.171875 L 197.484375 0.46875 L 149.375 0.34375 L 108.875 -79.34375 L 61.953125 -79.453125 L 61.765625 0.140625 Z M 116.8125 -170.484375 L 62.171875 -170.609375 L 62.03125 -114.78125 L 116.671875 -114.65625 C 126.378906 -114.625 134.15625 -117.175781 140 -122.3125 C 145.851562 -127.457031 148.789062 -134.1875 148.8125 -142.5 C 148.832031 -150.8125 145.929688 -157.546875 140.109375 -162.703125 C 134.285156 -167.859375 126.519531 -170.453125 116.8125 -170.484375 Z M 116.8125 -170.484375 "/></g></g></g><g fill="#282825" fill-opacity="1"><g transform="translate(271.195686, 332.585508)"><g><path d="M 231 -103.40625 C 230.957031 -88.5625 228.046875 -74.5625 222.265625 -61.40625 C 216.492188 -48.25 208.695312 -36.878906 198.875 -27.296875 C 189.0625 -17.710938 177.414062 -10.164062 163.9375 -4.65625 C 150.46875 0.84375 136.007812 3.578125 120.5625 3.546875 C 105.320312 3.515625 90.972656 0.710938 77.515625 -4.859375 C 64.066406 -10.429688 52.453125 -18.03125 42.671875 -27.65625 C 32.898438 -37.289062 25.15625 -48.695312 19.4375 -61.875 C 13.726562 -75.050781 10.894531 -89.0625 10.9375 -103.90625 C 10.96875 -118.757812 13.867188 -132.757812 19.640625 -145.90625 C 25.421875 -159.0625 33.21875 -170.425781 43.03125 -180 C 52.851562 -189.582031 64.503906 -197.128906 77.984375 -202.640625 C 91.460938 -208.148438 105.820312 -210.890625 121.0625 -210.859375 C 136.507812 -210.828125 150.957031 -208.019531 164.40625 -202.4375 C 177.851562 -196.863281 189.460938 -189.265625 199.234375 -179.640625 C 209.015625 -170.015625 216.757812 -158.613281 222.46875 -145.4375 C 228.1875 -132.269531 231.03125 -118.257812 231 -103.40625 Z M 186.75 -103.5 C 186.769531 -113.195312 185.101562 -122.160156 181.75 -130.390625 C 178.40625 -138.617188 173.816406 -145.753906 167.984375 -151.796875 C 162.160156 -157.847656 155.195312 -162.613281 147.09375 -166.09375 C 138.988281 -169.582031 130.28125 -171.335938 120.96875 -171.359375 C 111.664062 -171.378906 103 -169.664062 94.96875 -166.21875 C 86.945312 -162.78125 80.003906 -158.046875 74.140625 -152.015625 C 68.285156 -145.992188 63.664062 -138.878906 60.28125 -130.671875 C 56.90625 -122.460938 55.207031 -113.507812 55.1875 -103.8125 C 55.15625 -94.3125 56.8125 -85.394531 60.15625 -77.0625 C 63.507812 -68.738281 68.097656 -61.550781 73.921875 -55.5 C 79.753906 -49.457031 86.671875 -44.691406 94.671875 -41.203125 C 102.679688 -37.722656 111.335938 -35.972656 120.640625 -35.953125 C 129.953125 -35.929688 138.671875 -37.640625 146.796875 -41.078125 C 154.921875 -44.523438 161.910156 -49.257812 167.765625 -55.28125 C 173.628906 -61.3125 178.25 -68.476562 181.625 -76.78125 C 185.007812 -85.09375 186.71875 -94 186.75 -103.5 Z M 186.75 -103.5 "/></g></g></g><g fill="#282825" fill-opacity="1"><g transform="translate(487.388502, 333.092579)"><g><path d="M 19.1875 -207.828125 L 116.890625 -207.609375 C 137.679688 -207.554688 154.597656 -202.21875 167.640625 -191.59375 C 180.679688 -180.976562 187.1875 -167.253906 187.15625 -150.421875 C 187.132812 -141.316406 184.832031 -133.003906 180.25 -125.484375 C 175.675781 -117.972656 169.425781 -111.753906 161.5 -106.828125 C 171.394531 -102.054688 179.300781 -95.554688 185.21875 -87.328125 C 191.132812 -79.097656 194.082031 -69.929688 194.0625 -59.828125 C 194.019531 -41.816406 187.300781 -27.28125 173.90625 -16.21875 C 160.519531 -5.164062 142.9375 0.332031 121.15625 0.28125 L 18.703125 0.046875 Z M 114.140625 -171.96875 L 62.171875 -172.09375 L 62.046875 -122.796875 L 114.015625 -122.671875 C 123.128906 -122.648438 130.460938 -124.859375 136.015625 -129.296875 C 141.566406 -133.742188 144.351562 -139.726562 144.375 -147.25 C 144.394531 -154.769531 141.640625 -160.765625 136.109375 -165.234375 C 130.578125 -169.703125 123.253906 -171.945312 114.140625 -171.96875 Z M 117.96875 -35.359375 C 127.875 -35.335938 135.800781 -37.742188 141.75 -42.578125 C 147.695312 -47.421875 150.679688 -54 150.703125 -62.3125 C 150.722656 -70.238281 147.769531 -76.679688 141.84375 -81.640625 C 135.914062 -86.597656 128 -89.085938 118.09375 -89.109375 L 61.96875 -89.25 L 61.84375 -35.5 Z M 117.96875 -35.359375 "/></g></g></g><g fill="#282825" fill-opacity="1"><g transform="translate(213.18672, 461.460683)"><g><path d="M 115.203125 -52.875 C 115.179688 -44.675781 113.796875 -37.160156 111.046875 -30.328125 C 108.296875 -23.492188 104.472656 -17.671875 99.578125 -12.859375 C 94.679688 -8.046875 88.742188 -4.34375 81.765625 -1.75 C 74.796875 0.832031 67.082031 2.113281 58.625 2.09375 C 45.070312 2.0625 33.484375 -1.414062 23.859375 -8.34375 C 14.234375 -15.269531 7.421875 -25.1875 3.421875 -38.09375 L 29.609375 -48 C 32.453125 -39.78125 36.28125 -33.644531 41.09375 -29.59375 C 45.914062 -25.550781 51.84375 -23.519531 58.875 -23.5 C 67.207031 -23.476562 73.953125 -26.265625 79.109375 -31.859375 C 84.265625 -37.453125 86.851562 -44.738281 86.875 -53.71875 L 87.0625 -136.578125 L 115.390625 -136.515625 Z M 115.203125 -52.875 "/></g></g></g><g fill="#282825" fill-opacity="1"><g transform="translate(322.017409, 461.715941)"><g><path d="M 12.3125 0.03125 L 12.625 -136.75 L 117.75 -136.5 L 117.703125 -111.875 L 40.90625 -112.0625 L 40.828125 -80.796875 L 91.4375 -80.671875 L 91.390625 -56.828125 L 40.78125 -56.953125 L 40.703125 -24.53125 L 118.28125 -24.34375 L 118.21875 0.28125 Z M 12.3125 0.03125 "/></g></g></g><g fill="#282825" fill-opacity="1"><g transform="translate(431.434209, 461.972573)"><g><path d="M 54.703125 0.125 L 54.828125 -52.234375 L -0.859375 -136.78125 L 31.765625 -136.703125 L 69.9375 -77.21875 L 108.5625 -136.53125 L 139.4375 -136.453125 L 83.171875 -51.984375 L 83.046875 0.1875 Z M 54.703125 0.125 "/></g></g></g></svg>